<svg width="35" height="34" viewBox="0 0 35 34" fill="none" xmlns="http://www.w3.org/2000/svg">
<path d="M27.799 7.55074C25.9148 6.6724 23.8748 6.0349 21.7498 5.66657C21.7312 5.66597 21.7127 5.66947 21.6955 5.67681C21.6784 5.68416 21.6631 5.69517 21.6507 5.70907C21.3957 6.17657 21.0982 6.78574 20.8998 7.25324C18.6459 6.91324 16.3538 6.91324 14.0998 7.25324C13.9015 6.77157 13.604 6.17657 13.3348 5.70907C13.3207 5.68074 13.2782 5.66657 13.2357 5.66657C11.1107 6.0349 9.08484 6.6724 7.18651 7.55074C7.17234 7.55074 7.15817 7.5649 7.14401 7.57907C3.29067 13.3449 2.22817 18.9549 2.75234 24.5082C2.75234 24.5366 2.76651 24.5649 2.79484 24.5791C5.34484 26.4491 7.79567 27.5824 10.2182 28.3332C10.2607 28.3474 10.3032 28.3332 10.3173 28.3049C10.884 27.5257 11.394 26.7041 11.8332 25.8399C11.8615 25.7832 11.8332 25.7266 11.7765 25.7124C10.969 25.4007 10.204 25.0324 9.45317 24.6074C9.39651 24.5791 9.39651 24.4941 9.43901 24.4516C9.59484 24.3382 9.75067 24.2107 9.90651 24.0974C9.93484 24.0691 9.97734 24.0691 10.0057 24.0832C14.879 26.3074 20.1348 26.3074 24.9515 24.0832C24.9798 24.0691 25.0223 24.0691 25.0507 24.0974C25.2065 24.2249 25.3623 24.3382 25.5182 24.4657C25.5748 24.5082 25.5748 24.5932 25.504 24.6216C24.7673 25.0607 23.9882 25.4149 23.1807 25.7266C23.124 25.7407 23.1098 25.8116 23.124 25.8541C23.5773 26.7182 24.0873 27.5399 24.6398 28.3191C24.6823 28.3332 24.7248 28.3474 24.7673 28.3332C27.204 27.5824 29.6548 26.4491 32.2048 24.5791C32.2332 24.5649 32.2473 24.5366 32.2473 24.5082C32.8707 18.0907 31.2132 12.5232 27.8557 7.57907C27.8415 7.5649 27.8273 7.55074 27.799 7.55074ZM12.5698 21.1224C11.1107 21.1224 9.89234 19.7766 9.89234 18.1191C9.89234 16.4616 11.0823 15.1157 12.5698 15.1157C14.0715 15.1157 15.2615 16.4757 15.2473 18.1191C15.2473 19.7766 14.0573 21.1224 12.5698 21.1224ZM22.444 21.1224C20.9848 21.1224 19.7665 19.7766 19.7665 18.1191C19.7665 16.4616 20.9565 15.1157 22.444 15.1157C23.9457 15.1157 25.1357 16.4757 25.1215 18.1191C25.1215 19.7766 23.9457 21.1224 22.444 21.1224Z" fill="white"/>
</svg>
