<svg width="35" height="34" viewBox="0 0 35 34" fill="none" xmlns="http://www.w3.org/2000/svg">
<g clip-path="url(#clip0_453_1722)">
<path d="M15.8028 25.1744C15.9336 25.1745 16.063 25.2005 16.1838 25.2507C16.3045 25.3009 16.4142 25.3744 16.5066 25.4671C16.5989 25.5597 16.6721 25.6696 16.722 25.7905C16.7719 25.9114 16.7975 26.0409 16.7973 26.1717C16.7971 26.3025 16.7711 26.4319 16.7209 26.5527C16.6707 26.6735 16.5972 26.7831 16.5046 26.8755C16.412 26.9678 16.3021 27.041 16.1812 27.0909C16.0603 27.1408 15.9307 27.1664 15.7999 27.1662C15.5358 27.1658 15.2826 27.0605 15.0961 26.8735C14.9096 26.6865 14.8051 26.433 14.8054 26.1689C14.8058 25.9047 14.9111 25.6516 15.0981 25.4651C15.2852 25.2786 15.5386 25.174 15.8028 25.1744ZM31.4201 19.0161C31.2893 19.016 31.1598 18.9902 31.039 18.94C30.9182 18.8899 30.8085 18.8165 30.7161 18.7239C30.6237 18.6314 30.5504 18.5215 30.5004 18.4007C30.4505 18.2798 30.4248 18.1503 30.4249 18.0195C30.425 17.8887 30.4508 17.7592 30.501 17.6384C30.5511 17.5176 30.6246 17.4079 30.7171 17.3155C30.8096 17.2231 30.9195 17.1498 31.0404 17.0998C31.1612 17.0499 31.2907 17.0242 31.4215 17.0243C31.6857 17.0245 31.9389 17.1296 32.1255 17.3165C32.3122 17.5034 32.4169 17.7568 32.4167 18.0209C32.4165 18.285 32.3114 18.5383 32.1245 18.7249C31.9376 18.9116 31.6842 19.0163 31.4201 19.0161ZM31.4201 14.9418C30.6035 14.9425 29.8206 15.2672 29.2432 15.8447C28.6657 16.4221 28.341 17.205 28.3403 18.0216C28.3403 18.3517 28.3955 18.6804 28.5032 19.0005L18.3301 24.4164C18.048 24.0069 17.6706 23.672 17.2303 23.4408C16.79 23.2095 16.3001 23.0888 15.8028 23.089C14.6284 23.089 13.5588 23.7619 13.0403 24.8117L3.90136 19.9922C2.93519 19.485 2.21269 17.8955 2.28919 16.4477C2.32886 15.6926 2.58953 15.1061 2.98761 14.8794C3.23978 14.7378 3.54294 14.7491 3.86594 14.9177L3.92544 14.9503C6.34794 16.2253 14.2728 20.4002 14.6071 20.5546C15.1214 20.794 15.4075 20.8904 16.2859 20.4739L32.6682 11.954C32.909 11.8634 33.1895 11.6324 33.1895 11.2825C33.1895 10.798 32.688 10.6068 32.6866 10.6068C31.7544 10.1605 30.3222 9.49044 28.9254 8.83594C25.939 7.43769 22.5546 5.85386 21.0685 5.07469C19.785 4.40319 18.7523 4.96986 18.5681 5.08319L18.2111 5.26028C11.5216 8.56819 2.56828 13.0024 2.05828 13.3126C1.14736 13.8679 0.58211 14.9744 0.508443 16.3471C0.39511 18.5245 1.50436 20.7954 3.09244 21.627L12.7569 26.6109C12.8634 27.343 13.2297 28.0123 13.7889 28.4966C14.3482 28.9809 15.063 29.2479 15.8028 29.2487C16.6107 29.2473 17.3859 28.9289 17.9616 28.362C18.5373 27.7951 18.8675 27.0249 18.8812 26.217L29.526 20.4469C30.0644 20.8691 30.7344 21.1 31.4201 21.1C32.2367 21.0993 33.0196 20.7746 33.5971 20.1971C34.1745 19.6197 34.4992 18.8368 34.4999 18.0202C34.4992 17.2036 34.1745 16.4207 33.5971 15.8432C33.0196 15.2658 32.2367 14.9411 31.4201 14.9404" fill="white"/>
</g>
<defs>
<clipPath id="clip0_453_1722">
<rect width="34" height="34" fill="white" transform="translate(0.5)"/>
</clipPath>
</defs>
</svg>
