<svg width="35" height="34" viewBox="0 0 35 34" fill="none" xmlns="http://www.w3.org/2000/svg">
<path d="M18.9563 2.83475C19.9901 2.83078 21.0239 2.84117 22.0574 2.86592L22.3323 2.87583C22.6496 2.88717 22.9627 2.90133 23.3409 2.91833C24.8483 2.98917 25.8768 3.22717 26.7792 3.57708C27.7142 3.93692 28.5018 4.42425 29.2895 5.21192C30.0097 5.91969 30.5671 6.77584 30.9229 7.72083C31.2728 8.62325 31.5108 9.65317 31.5817 11.1605C31.5987 11.5373 31.6128 11.8518 31.6242 12.1692L31.6327 12.444C31.6578 13.477 31.6687 14.5103 31.6653 15.5437L31.6667 16.6005V18.4563C31.6702 19.4901 31.6593 20.5239 31.6341 21.5574L31.6256 21.8323C31.6143 22.1496 31.6001 22.4627 31.5831 22.8409C31.5123 24.3482 31.2714 25.3767 30.9229 26.2792C30.5683 27.2252 30.0107 28.082 29.2895 28.7895C28.5811 29.5096 27.7245 30.067 26.7792 30.4229C25.8768 30.7728 24.8483 31.0108 23.3409 31.0817C22.9627 31.0987 22.6496 31.1128 22.3323 31.1242L22.0574 31.1327C21.0239 31.1579 19.9901 31.1687 18.9563 31.1653L17.8995 31.1667H16.0451C15.0113 31.1702 13.9775 31.1593 12.944 31.1341L12.6692 31.1256C12.3329 31.1134 11.9966 31.0992 11.6605 31.0831C10.1532 31.0123 9.12467 30.7714 8.22084 30.4229C7.27547 30.0678 6.41917 29.5103 5.71192 28.7895C4.9909 28.0816 4.43299 27.2249 4.07709 26.2792C3.72717 25.3767 3.48917 24.3482 3.41834 22.8409C3.40256 22.5048 3.38839 22.1685 3.37584 21.8323L3.36875 21.5574C3.34264 20.5239 3.33083 19.4901 3.33334 18.4563V15.5437C3.32938 14.5104 3.33977 13.477 3.3645 12.444L3.37442 12.1692C3.38575 11.8518 3.39992 11.5373 3.41692 11.1605C3.48775 9.65175 3.72575 8.62467 4.07567 7.72083C4.43178 6.77538 4.99079 5.91946 5.71334 5.21333C6.4201 4.4919 7.27587 3.93348 8.22084 3.57708C9.12467 3.22717 10.1518 2.98917 11.6605 2.91833L12.6692 2.87583L12.944 2.86875C13.977 2.84265 15.0103 2.83084 16.0437 2.83333L18.9563 2.83475ZM17.5 9.91808C16.5615 9.90481 15.6297 10.0782 14.7587 10.4282C13.8878 10.7782 13.0951 11.2977 12.4267 11.9567C11.7583 12.6157 11.2276 13.401 10.8653 14.2669C10.503 15.1328 10.3165 16.0621 10.3165 17.0007C10.3165 17.9393 10.503 18.8686 10.8653 19.7345C11.2276 20.6004 11.7583 21.3857 12.4267 22.0447C13.0951 22.7037 13.8878 23.2233 14.7587 23.5732C15.6297 23.9232 16.5615 24.0966 17.5 24.0833C19.3786 24.0833 21.1803 23.3371 22.5087 22.0087C23.8371 20.6803 24.5833 18.8786 24.5833 17C24.5833 15.1214 23.8371 13.3197 22.5087 11.9913C21.1803 10.6629 19.3786 9.91808 17.5 9.91808ZM17.5 12.7514C18.0646 12.741 18.6255 12.8432 19.1501 13.052C19.6747 13.2609 20.1525 13.5722 20.5554 13.9677C20.9584 14.3632 21.2785 14.8351 21.497 15.3557C21.7156 15.8764 21.8282 16.4353 21.8283 17C21.8284 17.5646 21.716 18.1236 21.4976 18.6444C21.2792 19.1651 20.9593 19.637 20.5565 20.0327C20.1536 20.4284 19.676 20.7398 19.1514 20.9488C18.6269 21.1578 18.066 21.2602 17.5014 21.25C16.3743 21.25 15.2932 20.8022 14.4962 20.0052C13.6992 19.2082 13.2514 18.1272 13.2514 17C13.2514 15.8728 13.6992 14.7918 14.4962 13.9948C15.2932 13.1978 16.3743 12.75 17.5014 12.75L17.5 12.7514ZM24.9375 7.79308C24.4805 7.81138 24.0483 8.0058 23.7314 8.33563C23.4145 8.66546 23.2375 9.10511 23.2375 9.5625C23.2375 10.0199 23.4145 10.4595 23.7314 10.7894C24.0483 11.1192 24.4805 11.3136 24.9375 11.3319C25.4072 11.3319 25.8576 11.1453 26.1897 10.8133C26.5218 10.4812 26.7083 10.0307 26.7083 9.56108C26.7083 9.09143 26.5218 8.64101 26.1897 8.30892C25.8576 7.97682 25.4072 7.79025 24.9375 7.79025V7.79308Z" fill="white"/>
</svg>
