<svg width="35" height="34" viewBox="0 0 35 34" fill="none" xmlns="http://www.w3.org/2000/svg">
<g clip-path="url(#clip0_453_1714)">
<path d="M11.8335 8.5C14.0878 8.5 16.2498 9.39553 17.8439 10.9896C19.438 12.5837 20.3335 14.7457 20.3335 17C20.3335 19.2543 19.438 21.4163 17.8439 23.0104C16.2498 24.6045 14.0878 25.5 11.8335 25.5C9.57916 25.5 7.41715 24.6045 5.82309 23.0104C4.22903 21.4163 3.3335 19.2543 3.3335 17C3.3335 14.7457 4.22903 12.5837 5.82309 10.9896C7.41715 9.39553 9.57916 8.5 11.8335 8.5ZM24.5835 9.91667C26.7085 9.91667 28.1252 13.0886 28.1252 17C28.1252 20.9114 26.7085 24.0833 24.5835 24.0833C22.4585 24.0833 21.0418 20.9114 21.0418 17C21.0418 13.0886 22.4585 9.91667 24.5835 9.91667ZM30.2502 10.625C30.7885 10.625 31.2588 11.7966 31.4968 13.8068L31.5634 14.4344L31.5903 14.7673L31.6328 15.4672L31.647 15.8341L31.664 16.6005L31.6668 17L31.664 17.3995L31.647 18.1659L31.6328 18.5343L31.5903 19.2327L31.562 19.5656L31.4982 20.1932C31.2588 22.2048 30.7899 23.375 30.2502 23.375C29.7118 23.375 29.2415 22.2034 29.0035 20.1932L28.9369 19.5656C28.9272 19.4547 28.9182 19.3437 28.91 19.2327L28.8675 18.5328C28.862 18.4106 28.8573 18.2882 28.8533 18.1659L28.8363 17.3995V16.6005L28.8533 15.8341L28.8675 15.4657L28.91 14.7673L28.9383 14.4344L29.0021 13.8068C29.2415 11.7952 29.7104 10.625 30.2502 10.625Z" fill="white"/>
</g>
<defs>
<clipPath id="clip0_453_1714">
<rect width="34" height="34" fill="white" transform="translate(0.5)"/>
</clipPath>
</defs>
</svg>
