<svg width="35" height="34" viewBox="0 0 35 34" fill="none" xmlns="http://www.w3.org/2000/svg">
<path d="M32.3183 8.49984C31.2275 8.99567 30.0516 9.3215 28.8333 9.47734C30.08 8.7265 31.0433 7.5365 31.4966 6.10567C30.3208 6.814 29.0175 7.30984 27.6433 7.59317C26.5241 6.37484 24.9516 5.6665 23.1666 5.6665C19.8375 5.6665 17.1175 8.3865 17.1175 11.744C17.1175 12.2257 17.1741 12.6932 17.2733 13.1323C12.23 12.8773 7.73914 10.4548 4.74997 6.78567C4.22581 7.67817 3.92831 8.7265 3.92831 9.8315C3.92831 11.9423 4.99081 13.8123 6.63414 14.8748C5.62831 14.8748 4.69331 14.5915 3.87164 14.1665V14.209C3.87164 17.1557 5.96831 19.6207 8.74497 20.1732C7.8535 20.4171 6.91761 20.4511 6.01081 20.2723C6.39558 21.48 7.14915 22.5367 8.16558 23.294C9.18201 24.0512 10.4102 24.4709 11.6775 24.494C9.52928 26.1946 6.86647 27.1139 4.12664 27.1007C3.64497 27.1007 3.16331 27.0723 2.68164 27.0157C5.37331 28.744 8.57497 29.7498 12.0033 29.7498C23.1666 29.7498 29.3008 20.4848 29.3008 12.4523C29.3008 12.1832 29.3008 11.9282 29.2866 11.659C30.4766 10.809 31.4966 9.73234 32.3183 8.49984Z" fill="white"/>
</svg>
