<svg width="35" height="34" viewBox="0 0 35 34" fill="none" xmlns="http://www.w3.org/2000/svg">
<path d="M14.6668 21.2502L22.0193 17.0002L14.6668 12.7502V21.2502ZM31.0435 10.1577C31.2277 10.8235 31.3552 11.716 31.4402 12.8493C31.5393 13.9827 31.5818 14.9602 31.5818 15.8102L31.6668 17.0002C31.6668 20.1027 31.4402 22.3835 31.0435 23.8427C30.6893 25.1177 29.8677 25.9393 28.5927 26.2935C27.9268 26.4777 26.7085 26.6052 24.8385 26.6902C22.9968 26.7893 21.311 26.8318 19.7527 26.8318L17.5002 26.9168C11.5643 26.9168 7.86683 26.6902 6.40766 26.2935C5.13266 25.9393 4.311 25.1177 3.95683 23.8427C3.77266 23.1768 3.64516 22.2843 3.56016 21.151C3.461 20.0177 3.4185 19.0402 3.4185 18.1902L3.3335 17.0002C3.3335 13.8977 3.56016 11.6168 3.95683 10.1577C4.311 8.88266 5.13266 8.061 6.40766 7.70683C7.0735 7.52266 8.29183 7.39516 10.1618 7.31016C12.0035 7.211 13.6893 7.1685 15.2477 7.1685L17.5002 7.0835C23.436 7.0835 27.1335 7.31016 28.5927 7.70683C29.8677 8.061 30.6893 8.88266 31.0435 10.1577Z" fill="white"/>
</svg>
