<svg width="46" height="32" viewBox="0 0 46 32" fill="none" xmlns="http://www.w3.org/2000/svg">
<g filter="url(#filter0_i_446_3)">
<path fill-rule="evenodd" clip-rule="evenodd" d="M45.0718 0.83033C46.2701 1.97457 46.3139 3.87356 45.1697 5.07184L20.3421 31.0718C19.7857 31.6545 19.0185 31.9888 18.213 31.9997C17.4074 32.0106 16.6314 31.6971 16.0595 31.1297L0.887103 16.0771C-0.289103 14.9102 -0.296631 13.0107 0.87029 11.8345C2.03721 10.6583 3.93669 10.6507 5.1129 11.8177L18.1145 24.7167L40.8303 0.928167C41.9746 -0.270111 43.8736 -0.313914 45.0718 0.83033Z" fill="url(#paint0_linear_446_3)"/>
<path fill-rule="evenodd" clip-rule="evenodd" d="M45.0718 0.83033C46.2701 1.97457 46.3139 3.87356 45.1697 5.07184L20.3421 31.0718C19.7857 31.6545 19.0185 31.9888 18.213 31.9997C17.4074 32.0106 16.6314 31.6971 16.0595 31.1297L0.887103 16.0771C-0.289103 14.9102 -0.296631 13.0107 0.87029 11.8345C2.03721 10.6583 3.93669 10.6507 5.1129 11.8177L18.1145 24.7167L40.8303 0.928167C41.9746 -0.270111 43.8736 -0.313914 45.0718 0.83033Z" fill="url(#paint1_linear_446_3)"/>
</g>
<defs>
<filter id="filter0_i_446_3" x="0" y="0" width="46" height="32" filterUnits="userSpaceOnUse" color-interpolation-filters="sRGB">
<feFlood flood-opacity="0" result="BackgroundImageFix"/>
<feBlend mode="normal" in="SourceGraphic" in2="BackgroundImageFix" result="shape"/>
<feColorMatrix in="SourceAlpha" type="matrix" values="0 0 0 0 0 0 0 0 0 0 0 0 0 0 0 0 0 0 127 0" result="hardAlpha"/>
<feOffset/>
<feGaussianBlur stdDeviation="5"/>
<feComposite in2="hardAlpha" operator="arithmetic" k2="-1" k3="1"/>
<feColorMatrix type="matrix" values="0 0 0 0 1 0 0 0 0 1 0 0 0 0 1 0 0 0 0.1 0"/>
<feBlend mode="normal" in2="shape" result="effect1_innerShadow_446_3"/>
</filter>
<linearGradient id="paint0_linear_446_3" x1="2.3" y1="-2.56" x2="33.1148" y2="40.8677" gradientUnits="userSpaceOnUse">
<stop stop-color="#2AF598"/>
<stop offset="1" stop-color="#009EFD"/>
</linearGradient>
<linearGradient id="paint1_linear_446_3" x1="2.3" y1="-2.56" x2="33.1148" y2="40.8677" gradientUnits="userSpaceOnUse">
<stop stop-color="#4D4D4D"/>
<stop offset="1" stop-color="#1D1D1D"/>
</linearGradient>
</defs>
</svg>
