<svg width="120" height="120" viewBox="0 0 120 120" fill="none" xmlns="http://www.w3.org/2000/svg">
<g opacity="0.05">
<path d="M60 0C58.4087 0 56.8826 0.632141 55.7574 1.75736C54.6321 2.88258 54 4.4087 54 6V18C54 19.5913 54.6321 21.1174 55.7574 22.2426C56.8826 23.3679 58.4087 24 60 24C61.5913 24 63.1174 23.3679 64.2426 22.2426C65.3679 21.1174 66 19.5913 66 18V6C66 4.4087 65.3679 2.88258 64.2426 1.75736C63.1174 0.632141 61.5913 0 60 0ZM114 54H102C100.409 54 98.8826 54.6321 97.7574 55.7574C96.6321 56.8826 96 58.4087 96 60C96 61.5913 96.6321 63.1174 97.7574 64.2426C98.8826 65.3679 100.409 66 102 66H114C115.591 66 117.117 65.3679 118.243 64.2426C119.368 63.1174 120 61.5913 120 60C120 58.4087 119.368 56.8826 118.243 55.7574C117.117 54.6321 115.591 54 114 54ZM24 60C24 58.4087 23.3679 56.8826 22.2426 55.7574C21.1174 54.6321 19.5913 54 18 54H6C4.4087 54 2.88258 54.6321 1.75736 55.7574C0.632141 56.8826 0 58.4087 0 60C0 61.5913 0.632141 63.1174 1.75736 64.2426C2.88258 65.3679 4.4087 66 6 66H18C19.5913 66 21.1174 65.3679 22.2426 64.2426C23.3679 63.1174 24 61.5913 24 60ZM25.32 18C24.1504 16.894 22.5894 16.298 20.9803 16.343C19.3712 16.388 17.846 17.0704 16.74 18.24C15.634 19.4096 15.038 20.9706 15.083 22.5797C15.128 24.1888 15.8104 25.714 16.98 26.82L25.62 35.16C26.1998 35.7199 26.8865 36.1572 27.639 36.4458C28.3915 36.7344 29.1945 36.8685 30 36.84C30.8082 36.8369 31.6075 36.6706 32.3499 36.3509C33.0922 36.0313 33.7623 35.565 34.32 34.98C35.4375 33.8558 36.0648 32.3351 36.0648 30.75C36.0648 29.1649 35.4375 27.6442 34.32 26.52L25.32 18ZM90 36.84C91.5448 36.8339 93.0277 36.2321 94.14 35.16L102.78 26.82C103.834 25.7187 104.429 24.2575 104.445 22.7332C104.461 21.2089 103.896 19.7358 102.865 18.613C101.833 17.4903 100.414 16.8021 98.8935 16.6882C97.3733 16.5743 95.8669 17.0434 94.68 18L86.04 26.52C84.9225 27.6442 84.2952 29.1649 84.2952 30.75C84.2952 32.3351 84.9225 33.8558 86.04 34.98C87.0788 36.0763 88.4929 36.7405 90 36.84ZM60 96C58.4087 96 56.8826 96.6321 55.7574 97.7574C54.6321 98.8826 54 100.409 54 102V114C54 115.591 54.6321 117.117 55.7574 118.243C56.8826 119.368 58.4087 120 60 120C61.5913 120 63.1174 119.368 64.2426 118.243C65.3679 117.117 66 115.591 66 114V102C66 100.409 65.3679 98.8826 64.2426 97.7574C63.1174 96.6321 61.5913 96 60 96ZM94.38 84.84C93.2343 83.734 91.6961 83.1285 90.1039 83.1567C88.5117 83.1848 86.9959 83.8443 85.89 84.99C84.784 86.1357 84.1785 87.6739 84.2067 89.2661C84.2348 90.8583 84.8943 92.374 86.04 93.48L94.68 102C95.7923 103.072 97.2752 103.674 98.82 103.68C99.6239 103.685 100.421 103.528 101.163 103.219C101.905 102.909 102.577 102.454 103.14 101.88C103.702 101.322 104.149 100.659 104.453 99.9275C104.758 99.1963 104.915 98.4121 104.915 97.62C104.915 96.8279 104.758 96.0437 104.453 95.3125C104.149 94.5814 103.702 93.9178 103.14 93.36L94.38 84.84ZM25.62 84.84L16.98 93.18C16.4176 93.7378 15.9713 94.4014 15.6667 95.1325C15.362 95.8637 15.2052 96.6479 15.2052 97.44C15.2052 98.2321 15.362 99.0163 15.6667 99.7475C15.9713 100.479 16.4176 101.142 16.98 101.7C17.5428 102.274 18.2152 102.729 18.9573 103.039C19.6994 103.348 20.4961 103.505 21.3 103.5C22.7791 103.513 24.2107 102.978 25.32 102L33.96 93.66C35.1057 92.5541 35.7652 91.0383 35.7933 89.4461C35.8215 87.8539 35.216 86.3157 34.11 85.17C33.004 84.0243 31.4882 83.3648 29.8961 83.3367C28.3039 83.3085 26.7657 83.9141 25.62 85.02V84.84Z" fill="white"/>
</g>
</svg>
