<svg width="60" height="40" viewBox="0 0 60 40" fill="none" xmlns="http://www.w3.org/2000/svg">
<path d="M59.0485 12.2545C56.8384 11.4099 54.2623 10.492 52.1511 9.86707C51.4356 9.7059 50.7107 9.5885 49.9805 9.51555C44.9323 9.07615 36.6752 10.3944 29.8915 14.8469C27.2546 16.5558 24.9599 18.7307 23.1227 21.2622C19.8495 25.8271 17.9509 31.9445 18.7321 40.0002C18.7321 40.0002 25.1597 15.7697 55.6715 21.6332C56.6137 19.2468 57.9707 17.041 59.6814 15.1155C59.8772 14.8664 59.9865 14.5617 59.9929 14.2464C60.0138 13.8633 59.9386 13.481 59.7738 13.1334C59.6091 12.7859 59.3599 12.484 59.0485 12.2545Z" fill="#171819"/>
<path d="M55.6721 21.6336C56.6143 19.2471 57.9714 17.0414 59.682 15.1158C59.8778 14.8668 59.9871 14.562 59.9935 14.2468C60.0161 13.8649 59.9432 13.4834 59.7811 13.136C59.6189 12.7885 59.3726 12.4859 59.0639 12.2548C56.8538 11.4102 54.4063 10.4923 52.3 9.86739C50.3668 9.30105 48.839 8.89095 48.5324 8.83724C33.4422 5.24392 22.8958 8.75425 15.8007 14.1393C5.53614 21.9509 2.30746 33.6683 2.30746 33.6683C8.38041 28.2552 15.446 24.0393 23.1233 21.2479C31.8847 18.1232 44.2259 17.3421 55.6721 21.6189" fill="#171819"/>
<path d="M55.6736 21.6332C56.6159 19.2467 57.9729 17.041 59.6835 15.1154C59.8794 14.8664 59.9886 14.5616 59.995 14.2463C60.0203 13.8642 59.9486 13.4818 59.7863 13.1339C59.6239 12.786 59.3762 12.4837 59.0655 12.2544C59.0655 12.2544 58.8084 12.0835 58.665 12.0103L54.4623 9.89628C53.1619 9.27624 53.4437 8.80266 52.979 7.45517C52.824 7.03897 52.6355 6.63571 52.4153 6.24926C52.2956 6.03793 52.1024 5.87661 51.8714 5.79521C49.2163 4.84806 42.9715 4.84805 42.3683 0C40.7912 1.11326 39.7148 2.78899 39.3671 4.6723C12.4549 2.64617 0 17.2831 0 17.2831C5.06149 15.3778 10.4081 14.3153 15.822 14.1389C20.5312 13.9535 25.2477 14.1905 29.9135 14.8469C41.0976 16.3604 52.0642 19.9879 55.6934 21.6332H55.6736ZM50.8727 7.80669C50.9535 7.77801 51.0392 7.76538 51.125 7.7695C51.2108 7.77362 51.2949 7.79442 51.3726 7.8307C51.4502 7.86699 51.5198 7.91804 51.5774 7.98095C51.635 8.04385 51.6795 8.11736 51.7083 8.19727L52.267 9.86699C52.267 9.86699 49.7651 9.07607 48.4647 8.82707L50.8727 7.80669Z" fill="#171819"/>
</svg>
