<svg width="42" height="52" viewBox="0 0 42 52" fill="none" xmlns="http://www.w3.org/2000/svg">
<path d="M21 0L0 9.45455V23.6364C0 36.7545 8.96 49.0218 21 52C33.04 49.0218 42 36.7545 42 23.6364V9.45455L21 0ZM21 14.1818C24.2667 14.1818 27.5333 16.7818 27.5333 20.0909V23.6364C28.9333 23.6364 30.3333 25.0545 30.3333 26.7091V34.9818C30.3333 36.4 28.9333 37.8182 27.3 37.8182H14.4667C13.0667 37.8182 11.6667 36.4 11.6667 34.7455V26.4727C11.6667 25.0545 13.0667 23.6364 14.4667 23.6364V20.0909C14.4667 16.7818 17.7333 14.1818 21 14.1818ZM21 17.0182C19.1333 17.0182 17.5 18.2 17.5 20.0909V23.6364H24.5V20.0909C24.5 18.2 22.8667 17.0182 21 17.0182Z" fill="#171819"/>
</svg>
