<svg width="48" height="43" viewBox="0 0 48 43" fill="none" xmlns="http://www.w3.org/2000/svg">
<g filter="url(#filter0_ii_490_237)">
<path d="M0 5.9625C1.72942 4.66947 3.83577 3.97174 6 3.975H42C44.2507 3.975 46.328 4.71435 48 5.9625C48 5.1795 47.8448 4.40416 47.5433 3.68075C47.2418 2.95735 46.7998 2.30005 46.2426 1.74638C45.6855 1.19271 45.0241 0.753513 44.2961 0.453869C43.5681 0.154225 42.7879 0 42 0H6C4.4087 0 2.88258 0.62819 1.75736 1.74638C0.632141 2.86456 0 4.38115 0 5.9625ZM0 13.9125C1.72942 12.6195 3.83577 11.9217 6 11.925H42C44.2507 11.925 46.328 12.6644 48 13.9125C48 13.1295 47.8448 12.3542 47.5433 11.6308C47.2418 10.9074 46.7998 10.2501 46.2426 9.69638C45.6855 9.14271 45.0241 8.70352 44.2961 8.40387C43.5681 8.10423 42.7879 7.95 42 7.95H6C4.4087 7.95 2.88258 8.5782 1.75736 9.69638C0.632141 10.8146 0 12.3312 0 13.9125ZM16 15.9C16.7072 15.9 17.3855 16.1792 17.8856 16.6762C18.3857 17.1731 18.6667 17.8472 18.6667 18.55C18.6667 19.9557 19.2286 21.3037 20.2288 22.2977C21.229 23.2916 22.5855 23.85 24 23.85C25.4145 23.85 26.771 23.2916 27.7712 22.2977C28.7714 21.3037 29.3333 19.9557 29.3333 18.55C29.3333 17.8472 29.6143 17.1731 30.1144 16.6762C30.6145 16.1792 31.2928 15.9 32 15.9H42C42.7879 15.9 43.5681 16.0542 44.2961 16.3539C45.0241 16.6535 45.6855 17.0927 46.2426 17.6464C46.7998 18.2001 47.2418 18.8574 47.5433 19.5808C47.8448 20.3042 48 21.0795 48 21.8625V36.4375C48 37.2205 47.8448 37.9959 47.5433 38.7193C47.2418 39.4427 46.7998 40.1 46.2426 40.6536C45.6855 41.2073 45.0241 41.6465 44.2961 41.9462C43.5681 42.2458 42.7879 42.4 42 42.4H6C4.4087 42.4 2.88258 41.7718 1.75736 40.6536C0.632141 39.5355 0 38.0189 0 36.4375V21.8625C0 20.2812 0.632141 18.7646 1.75736 17.6464C2.88258 16.5282 4.4087 15.9 6 15.9H16Z" fill="#171819"/>
</g>
<defs>
<filter id="filter0_ii_490_237" x="0" y="-3" width="48" height="48.3999" filterUnits="userSpaceOnUse" color-interpolation-filters="sRGB">
<feFlood flood-opacity="0" result="BackgroundImageFix"/>
<feBlend mode="normal" in="SourceGraphic" in2="BackgroundImageFix" result="shape"/>
<feColorMatrix in="SourceAlpha" type="matrix" values="0 0 0 0 0 0 0 0 0 0 0 0 0 0 0 0 0 0 127 0" result="hardAlpha"/>
<feOffset dy="-3"/>
<feGaussianBlur stdDeviation="4"/>
<feComposite in2="hardAlpha" operator="arithmetic" k2="-1" k3="1"/>
<feColorMatrix type="matrix" values="0 0 0 0 0.0470588 0 0 0 0 0.717647 0 0 0 0 0.882353 0 0 0 0.3 0"/>
<feBlend mode="normal" in2="shape" result="effect1_innerShadow_490_237"/>
<feColorMatrix in="SourceAlpha" type="matrix" values="0 0 0 0 0 0 0 0 0 0 0 0 0 0 0 0 0 0 127 0" result="hardAlpha"/>
<feOffset dy="3"/>
<feGaussianBlur stdDeviation="1.5"/>
<feComposite in2="hardAlpha" operator="arithmetic" k2="-1" k3="1"/>
<feColorMatrix type="matrix" values="0 0 0 0 0 0 0 0 0 0 0 0 0 0 0 0 0 0 1 0"/>
<feBlend mode="normal" in2="effect1_innerShadow_490_237" result="effect2_innerShadow_490_237"/>
</filter>
</defs>
</svg>
