<svg width="58" height="56" viewBox="0 0 58 56" fill="none" xmlns="http://www.w3.org/2000/svg">
<g filter="url(#filter0_ii_494_322)">
<path d="M54.8624 29.4304C54.8624 43.3597 43.2833 54.6517 28.9998 54.6517C14.7163 54.6517 3.13721 43.3597 3.13721 29.4304C3.13721 15.501 14.7163 4.20898 28.9998 4.20898C43.2833 4.20898 54.8624 15.501 54.8624 29.4304ZM5.20621 29.4304C5.20621 42.2454 15.859 52.634 28.9998 52.634C42.1406 52.634 52.7934 42.2454 52.7934 29.4304C52.7934 16.6153 42.1406 6.22669 28.9998 6.22669C15.859 6.22669 5.20621 16.6153 5.20621 29.4304Z" fill="#171819"/>
<path d="M44.4564 29.461C44.4564 37.7599 37.5396 44.4875 29.0073 44.4875C20.4749 44.4875 13.5581 37.7599 13.5581 29.461C13.5581 21.1621 20.4749 14.4346 29.0073 14.4346C37.5396 14.4346 44.4564 21.1621 44.4564 29.461ZM15.721 29.461C15.721 36.5981 21.6695 42.3838 29.0073 42.3838C36.3451 42.3838 42.2935 36.5981 42.2935 29.461C42.2935 22.324 36.3451 16.5383 29.0073 16.5383C21.6695 16.5383 15.721 22.324 15.721 29.461Z" fill="#171819"/>
<path d="M28.9272 34.7395C31.7862 34.7395 34.1039 32.4121 34.1039 29.5411C34.1039 26.6701 31.7862 24.3428 28.9272 24.3428C26.0682 24.3428 23.7505 26.6701 23.7505 29.5411C23.7505 32.4121 26.0682 34.7395 28.9272 34.7395Z" fill="#171819"/>
<path d="M28.9268 22.0669C27.9153 22.0669 26.9038 21.8023 26.017 21.2871C23.232 19.6719 22.2759 16.0934 23.8832 13.2947C24.9224 11.4845 26.8484 10.3706 28.9268 10.3706C29.9383 10.3706 30.9498 10.6352 31.8366 11.1504C34.6216 12.7656 35.5777 16.3441 33.9704 19.1428C32.945 20.9529 31.0052 22.0669 28.9268 22.0669Z" fill="#171819"/>
<path d="M28.9908 8.84066C28.2642 8.84066 27.5376 8.64996 26.8875 8.26855C25.9123 7.71552 25.2239 6.80014 24.9371 5.71314C24.6502 4.62613 24.8032 3.50098 25.3577 2.5284C26.1035 1.23162 27.4994 0.430664 29.01 0.430664C29.7366 0.430664 30.4632 0.621367 31.1134 1.00277C32.0886 1.55581 32.7769 2.47119 33.0638 3.55819C33.3506 4.6452 33.1976 5.77035 32.6431 6.74293C31.8782 8.03971 30.4823 8.84066 28.9908 8.84066Z" fill="#171819"/>
<path d="M14.8943 13.2239C12.7871 13.2239 10.9969 11.5839 10.8104 9.47802C10.6053 7.22302 12.2836 5.22893 14.54 5.04256C14.6519 5.02393 14.7824 5.02393 14.8943 5.02393C17.0015 5.02393 18.7917 6.66393 18.9782 8.76984C19.0714 9.86938 18.7358 10.9317 18.0271 11.7703C17.3185 12.6089 16.3302 13.1307 15.2486 13.2239C15.1367 13.2053 15.0062 13.2239 14.8943 13.2239Z" fill="#171819"/>
<path d="M4.63309 31.1761C3.79197 31.1761 2.96954 30.9152 2.27796 30.4306C1.38076 29.797 0.782634 28.8652 0.595719 27.7843C0.408804 26.7033 0.651794 25.6224 1.26861 24.7279C2.03497 23.6283 3.30599 22.9761 4.63309 22.9761C5.47421 22.9761 6.29663 23.237 6.98822 23.7215C7.88541 24.3552 8.48354 25.287 8.67046 26.3679C8.85737 27.4488 8.63308 28.5297 7.99756 29.4243C7.23121 30.5238 5.97888 31.1761 4.63309 31.1761Z" fill="#171819"/>
<path d="M7.83975 45.7122C10.1041 45.7122 11.9397 43.8766 11.9397 41.6122C11.9397 39.3478 10.1041 37.5122 7.83975 37.5122C5.57538 37.5122 3.73975 39.3478 3.73975 41.6122C3.73975 43.8766 5.57538 45.7122 7.83975 45.7122Z" fill="#171819"/>
<path d="M18.7411 55.7591C17.3982 55.7591 16.1485 55.1068 15.3838 54.0073C14.7496 53.1127 14.5072 52.0132 14.7123 50.9509C14.9175 49.8886 15.4957 48.9382 16.391 48.3045C17.0811 47.82 17.9018 47.5591 18.7411 47.5591C20.084 47.5591 21.3337 48.2114 22.0984 49.3109C22.7326 50.2054 22.9751 51.305 22.7699 52.3673C22.5647 53.4295 21.9865 54.38 21.0912 55.0136C20.4011 55.4982 19.5804 55.7591 18.7411 55.7591Z" fill="#171819"/>
<path d="M39.2597 55.7591C39.1477 55.7591 39.0172 55.7591 38.9052 55.7405C37.8046 55.6475 36.8159 55.1269 36.1257 54.2901C35.4355 53.4534 35.0811 52.3935 35.1744 51.2965C35.3609 49.1954 37.1517 47.5591 39.2597 47.5591C39.3716 47.5591 39.5022 47.5591 39.6141 47.5777C40.7147 47.6706 41.7034 48.1913 42.3936 49.028C43.0838 49.8647 43.4382 50.9246 43.345 52.0217C43.1584 54.1228 41.3676 55.7591 39.2597 55.7591Z" fill="#171819"/>
<path d="M50.1635 45.7122C48.7134 45.7122 47.3377 44.9313 46.6126 43.6669C45.4786 41.7145 46.1479 39.2043 48.1185 38.07C48.732 37.7167 49.4384 37.5122 50.1635 37.5122C51.6136 37.5122 52.9893 38.2932 53.7143 39.5576C54.2535 40.5059 54.4022 41.6029 54.1233 42.6628C53.8445 43.7226 53.1566 44.5966 52.2085 45.1544C51.5764 45.5263 50.8699 45.7122 50.1635 45.7122Z" fill="#171819"/>
<path d="M53.3666 31.1761C52.7708 31.1761 52.1936 31.0456 51.6351 30.7847C50.6483 30.3188 49.885 29.4988 49.5126 28.4738C49.1402 27.4488 49.1961 26.3306 49.6429 25.3429C50.3132 23.9079 51.7654 22.9761 53.3666 22.9761C53.9624 22.9761 54.5396 23.1065 55.0981 23.3674C56.0849 23.8333 56.8482 24.6533 57.2206 25.6783C57.593 26.7033 57.5371 27.8215 57.0903 28.8093C56.42 30.2443 54.9678 31.1761 53.3666 31.1761Z" fill="#171819"/>
<path d="M43.0004 13.3648C41.4202 13.3648 39.9516 12.4008 39.2823 10.9163C38.8176 9.89448 38.7804 8.73772 39.1522 7.67735C39.524 6.61698 40.2676 5.76869 41.2715 5.2867C41.8106 5.01679 42.4055 4.88184 43.0004 4.88184C44.5806 4.88184 46.0492 5.84581 46.7185 7.33032C47.1832 8.35213 47.2204 9.50889 46.8486 10.5693C46.4768 11.6296 45.7332 12.4779 44.7293 12.9599C44.1716 13.2298 43.5953 13.3648 43.0004 13.3648Z" fill="#171819"/>
<path d="M17.6026 42.0501C20.819 42.0501 23.4263 39.3955 23.4263 36.1208C23.4263 32.8461 20.819 30.1914 17.6026 30.1914C14.3862 30.1914 11.7788 32.8461 11.7788 36.1208C11.7788 39.3955 14.3862 42.0501 17.6026 42.0501Z" fill="#171819"/>
<path d="M40.2505 41.8877C38.1721 41.8877 36.2461 40.7737 35.2069 38.9636C33.5996 36.1649 34.5557 32.5864 37.3408 30.9712C38.2275 30.456 39.2252 30.1914 40.2505 30.1914C42.3289 30.1914 44.2549 31.3053 45.2941 33.1155C46.9014 35.9142 45.9454 39.4927 43.1603 41.1079C42.2735 41.6092 41.2759 41.8877 40.2505 41.8877Z" fill="#171819"/>
</g>
<defs>
<filter id="filter0_ii_494_322" x="0.53418" y="-2.56934" width="56.9326" height="61.3286" filterUnits="userSpaceOnUse" color-interpolation-filters="sRGB">
<feFlood flood-opacity="0" result="BackgroundImageFix"/>
<feBlend mode="normal" in="SourceGraphic" in2="BackgroundImageFix" result="shape"/>
<feColorMatrix in="SourceAlpha" type="matrix" values="0 0 0 0 0 0 0 0 0 0 0 0 0 0 0 0 0 0 127 0" result="hardAlpha"/>
<feOffset dy="-3"/>
<feGaussianBlur stdDeviation="4"/>
<feComposite in2="hardAlpha" operator="arithmetic" k2="-1" k3="1"/>
<feColorMatrix type="matrix" values="0 0 0 0 0.0470588 0 0 0 0 0.717647 0 0 0 0 0.882353 0 0 0 0.3 0"/>
<feBlend mode="normal" in2="shape" result="effect1_innerShadow_494_322"/>
<feColorMatrix in="SourceAlpha" type="matrix" values="0 0 0 0 0 0 0 0 0 0 0 0 0 0 0 0 0 0 127 0" result="hardAlpha"/>
<feOffset dy="3"/>
<feGaussianBlur stdDeviation="1.5"/>
<feComposite in2="hardAlpha" operator="arithmetic" k2="-1" k3="1"/>
<feColorMatrix type="matrix" values="0 0 0 0 0 0 0 0 0 0 0 0 0 0 0 0 0 0 1 0"/>
<feBlend mode="normal" in2="effect1_innerShadow_494_322" result="effect2_innerShadow_494_322"/>
</filter>
</defs>
</svg>
