<svg width="52" height="45" viewBox="0 0 52 45" fill="none" xmlns="http://www.w3.org/2000/svg">
<g filter="url(#filter0_ii_494_349)">
<path d="M26 0C25.0254 -1.4522e-08 24.0604 0.191953 23.16 0.564901C22.2597 0.937848 21.4416 1.48449 20.7525 2.1736C20.0633 2.86272 19.5167 3.68082 19.1438 4.58119C18.7708 5.48157 18.5789 6.44658 18.5789 7.42114C18.5789 8.3957 18.7708 9.36072 19.1438 10.2611C19.5167 11.1615 20.0633 11.9796 20.7525 12.6687C21.4416 13.3578 22.2597 13.9044 23.16 14.2774C24.0604 14.6503 25.0254 14.8423 26 14.8423C27.9682 14.8423 29.8558 14.0604 31.2475 12.6687C32.6393 11.2769 33.4211 9.38935 33.4211 7.42114C33.4211 5.45293 32.6393 3.56534 31.2475 2.1736C29.8558 0.781868 27.9682 0 26 0ZM42.7143 3.70686C41.2366 3.70686 39.8195 4.29385 38.7747 5.33869C37.7298 6.38354 37.1429 7.80065 37.1429 9.27829C37.1429 10.7559 37.7298 12.173 38.7747 13.2179C39.8195 14.2627 41.2366 14.8497 42.7143 14.8497C44.1919 14.8497 45.609 14.2627 46.6539 13.2179C47.6987 12.173 48.2857 10.7559 48.2857 9.27829C48.2857 7.80065 47.6987 6.38354 46.6539 5.33869C45.609 4.29385 44.1919 3.70686 42.7143 3.70686ZM9.28572 3.70686C7.80808 3.70686 6.39097 4.29385 5.34612 5.33869C4.30127 6.38354 3.71429 7.80065 3.71429 9.27829C3.71429 10.7559 4.30127 12.173 5.34612 13.2179C6.39097 14.2627 7.80808 14.8497 9.28572 14.8497C10.7633 14.8497 12.1805 14.2627 13.2253 13.2179C14.2702 12.173 14.8571 10.7559 14.8571 9.27829C14.8571 7.80065 14.2702 6.38354 13.2253 5.33869C12.1805 4.29385 10.7633 3.70686 9.28572 3.70686ZM14.8571 22.2523C14.864 21.2717 15.2584 20.3336 15.9542 19.6427C16.65 18.9517 17.5908 18.564 18.5714 18.564H33.4286C34.4137 18.564 35.3584 18.9553 36.055 19.6519C36.7515 20.3485 37.1429 21.2932 37.1429 22.2783V33.4211C37.1426 34.5901 36.9596 35.7518 36.6006 36.8643C35.7781 39.3852 34.0839 41.5303 31.8222 42.9145C29.5605 44.2986 26.8794 44.8312 24.2603 44.4164C21.6413 44.0017 19.2559 42.6669 17.5325 40.6517C15.809 38.6364 14.8605 36.0728 14.8571 33.4211V22.2523ZM11.1429 22.2783C11.1429 20.9226 11.5031 19.656 12.1383 18.564H3.71429C2.7292 18.564 1.78445 18.9553 1.08789 19.6519C0.391326 20.3485 5.14106e-07 21.2932 5.14106e-07 22.2783V31.564C-0.00050532 33.0843 0.372268 34.5814 1.08558 35.924C1.7989 37.2665 2.83094 38.4134 4.09107 39.2639C5.3512 40.1143 6.80087 40.6424 8.31278 40.8017C9.82469 40.961 11.3526 40.7466 12.7623 40.1774C11.6932 38.0847 11.1381 35.7674 11.1429 33.4174V22.2783ZM40.8571 22.2783V33.4211C40.8571 35.854 40.274 38.1494 39.2377 40.1774C40.6474 40.7466 42.1753 40.961 43.6872 40.8017C45.1991 40.6424 46.6488 40.1143 47.9089 39.2639C49.1691 38.4134 50.2011 37.2665 50.9144 35.924C51.6277 34.5814 52.0005 33.0843 52 31.564V22.2783C52 21.2932 51.6087 20.3485 50.9121 19.6519C50.2155 18.9553 49.2708 18.564 48.2857 18.564H39.8617C40.4931 19.656 40.8571 20.9226 40.8571 22.2783Z" fill="#171819"/>
</g>
<defs>
<filter id="filter0_ii_494_349" x="0" y="-3" width="52" height="50.5537" filterUnits="userSpaceOnUse" color-interpolation-filters="sRGB">
<feFlood flood-opacity="0" result="BackgroundImageFix"/>
<feBlend mode="normal" in="SourceGraphic" in2="BackgroundImageFix" result="shape"/>
<feColorMatrix in="SourceAlpha" type="matrix" values="0 0 0 0 0 0 0 0 0 0 0 0 0 0 0 0 0 0 127 0" result="hardAlpha"/>
<feOffset dy="-3"/>
<feGaussianBlur stdDeviation="4"/>
<feComposite in2="hardAlpha" operator="arithmetic" k2="-1" k3="1"/>
<feColorMatrix type="matrix" values="0 0 0 0 0.0470588 0 0 0 0 0.717647 0 0 0 0 0.882353 0 0 0 0.3 0"/>
<feBlend mode="normal" in2="shape" result="effect1_innerShadow_494_349"/>
<feColorMatrix in="SourceAlpha" type="matrix" values="0 0 0 0 0 0 0 0 0 0 0 0 0 0 0 0 0 0 127 0" result="hardAlpha"/>
<feOffset dy="3"/>
<feGaussianBlur stdDeviation="1.5"/>
<feComposite in2="hardAlpha" operator="arithmetic" k2="-1" k3="1"/>
<feColorMatrix type="matrix" values="0 0 0 0 0 0 0 0 0 0 0 0 0 0 0 0 0 0 1 0"/>
<feBlend mode="normal" in2="effect1_innerShadow_494_349" result="effect2_innerShadow_494_349"/>
</filter>
</defs>
</svg>
